pixels-smal.ufo
<glyph name="comma" format="1">
  <advance width="200"/>
  <unicode hex="002C"/>
  <outline>
    <contour>
      <point x="100" y="-100" type="line"/>
      <point x="200" y="-100" type="line"/>
      <point x="200" y="0" type="line"/>
      <point x="100" y="0" type="line"/>
    </contour>
    <contour>
      <point x="100" y="0" type="line"/>
      <point x="200" y="0" type="line"/>
      <point x="200" y="100" type="line"/>
      <point x="100" y="100" type="line"/>
    </contour>
  </outline>
</glyph>
<glyph name="colon" format="2">
  <advance width="200"/>
  <unicode hex="003A"/>
  <outline>
    <contour>
      <point x="100" y="0" type="line"/>
      <point x="200" y="0" type="line"/>
      <point x="200" y="100" type="line"/>
      <point x="100" y="100" type="line"/>
    </contour>
    <contour>
      <point x="100" y="400" type="line"/>
      <point x="200" y="400" type="line"/>
      <point x="200" y="500" type="line"/>
      <point x="100" y="500" type="line"/>
    </contour>
  </outline>
</glyph>
<glyph name="I" format="1">
  <advance width="200"/>
  <unicode hex="0049"/>
  <outline>
    <contour>
      <point x="100" y="600" type="line"/>
      <point x="200" y="600" type="line"/>
      <point x="200" y="700" type="line"/>
      <point x="100" y="700" type="line"/>
    </contour>
    <contour>
      <point x="100" y="500" type="line"/>
      <point x="200" y="500" type="line"/>
      <point x="200" y="600" type="line"/>
      <point x="100" y="600" type="line"/>
    </contour>
    <contour>
      <point x="100" y="400" type="line"/>
      <point x="200" y="400" type="line"/>
      <point x="200" y="500" type="line"/>
      <point x="100" y="500" type="line"/>
    </contour>
    <contour>
      <point x="100" y="300" type="line"/>
      <point x="200" y="300" type="line"/>
      <point x="200" y="400" type="line"/>
      <point x="100" y="400" type="line"/>
    </contour>
    <contour>
      <point x="100" y="200" type="line"/>
      <point x="200" y="200" type="line"/>
      <point x="200" y="300" type="line"/>
      <point x="100" y="300" type="line"/>
    </contour>
    <contour>
      <point x="100" y="100" type="line"/>
      <point x="200" y="100" type="line"/>
      <point x="200" y="200" type="line"/>
      <point x="100" y="200" type="line"/>
    </contour>
    <contour>
      <point x="100" y="0" type="line"/>
      <point x="200" y="0" type="line"/>
      <point x="200" y="100" type="line"/>
      <point x="100" y="100" type="line"/>
    </contour>
  </outline>
</glyph>
<glyph name="p" format="2">
  <advance width="400"/>
  <unicode hex="0070"/>
  <outline>
    <contour>
      <point x="100" y="0" type="line"/>
      <point x="200" y="0" type="line"/>
      <point x="200" y="100" type="line"/>
      <point x="100" y="100" type="line"/>
    </contour>
    <contour>
      <point x="100" y="100" type="line"/>
      <point x="200" y="100" type="line"/>
      <point x="200" y="200" type="line"/>
      <point x="100" y="200" type="line"/>
    </contour>
    <contour>
      <point x="100" y="200" type="line"/>
      <point x="200" y="200" type="line"/>
      <point x="200" y="300" type="line"/>
      <point x="100" y="300" type="line"/>
    </contour>
    <contour>
      <point x="100" y="300" type="line"/>
      <point x="200" y="300" type="line"/>
      <point x="200" y="400" type="line"/>
      <point x="100" y="400" type="line"/>
    </contour>
    <contour>
      <point x="100" y="400" type="line"/>
      <point x="200" y="400" type="line"/>
      <point x="200" y="500" type="line"/>
      <point x="100" y="500" type="line"/>
    </contour>
    <contour>
      <point x="200" y="400" type="line"/>
      <point x="300" y="400" type="line"/>
      <point x="300" y="500" type="line"/>
      <point x="200" y="500" type="line"/>
    </contour>
    <contour>
      <point x="200" y="0" type="line"/>
      <point x="300" y="0" type="line"/>
      <point x="300" y="100" type="line"/>
      <point x="200" y="100" type="line"/>
    </contour>
    <contour>
      <point x="100" y="-100" type="line"/>
      <point x="200" y="-100" type="line"/>
      <point x="200" y="0" type="line"/>
      <point x="100" y="0" type="line"/>
    </contour>
    <contour>
      <point x="100" y="-200" type="line"/>
      <point x="200" y="-200" type="line"/>
      <point x="200" y="-100" type="line"/>
      <point x="100" y="-100" type="line"/>
    </contour>
    <contour>
      <point x="300" y="300" type="line"/>
      <point x="400" y="300" type="line"/>
      <point x="400" y="400" type="line"/>
      <point x="300" y="400" type="line"/>
    </contour>
    <contour>
      <point x="300" y="200" type="line"/>
      <point x="400" y="200" type="line"/>
      <point x="400" y="300" type="line"/>
      <point x="300" y="300" type="line"/>
    </contour>
    <contour>
      <point x="300" y="100" type="line"/>
      <point x="400" y="100" type="line"/>
      <point x="400" y="200" type="line"/>
      <point x="300" y="200" type="line"/>
    </contour>
  </outline>
</glyph>
<glyph name="circle" format="2">
  <unicode hex="25CB"/>
  <outline>
    <contour>
      <point x="0" y="-41" type="curve" smooth="yes"/>
      <point x="23" y="-41"/>
      <point x="41" y="-22"/>
      <point x="41" y="0" type="curve" smooth="yes"/>
      <point x="41" y="23"/>
      <point x="23" y="41"/>
      <point x="0" y="41" type="curve" smooth="yes"/>
      <point x="-22" y="41"/>
      <point x="-41" y="23"/>
      <point x="-41" y="0" type="curve" smooth="yes"/>
      <point x="-41" y="-22"/>
      <point x="-22" y="-41"/>
    </contour>
  </outline>
</glyph>
<glyph name="leave" format="2">
  <outline>
    <contour>
      <point x="-1" y="-71" type="line"/>
      <point x="0" y="-71"/>
      <point x="-1" y="-66"/>
      <point x="-1" y="-61" type="curve"/>
      <point x="-1" y="-61" type="line"/>
      <point x="-1" y="-61"/>
      <point x="3" y="-60"/>
      <point x="4" y="-57" type="curve" smooth="yes"/>
      <point x="5" y="-55"/>
      <point x="11" y="-56"/>
      <point x="11" y="-49" type="curve" smooth="yes"/>
      <point x="11" y="-41"/>
      <point x="2" y="-47"/>
      <point x="2" y="-47" type="curve"/>
      <point x="2" y="-47"/>
      <point x="3" y="-41"/>
      <point x="9" y="-36" type="curve" smooth="yes"/>
      <point x="16" y="-30"/>
      <point x="20" y="-21"/>
      <point x="7" y="-23" type="curve"/>
      <point x="7" y="-24" type="line"/>
      <point x="7" y="-24"/>
      <point x="5" y="-20"/>
      <point x="13" y="-15" type="curve" smooth="yes"/>
      <point x="21" y="-10"/>
      <point x="25" y="-8"/>
      <point x="25" y="-5" type="curve" smooth="yes"/>
      <point x="25" y="-2"/>
      <point x="19" y="5"/>
      <point x="9" y="-3" type="curve"/>
      <point x="9" y="-4" type="line"/>
      <point x="9" y="-4"/>
      <point x="9" y="1"/>
      <point x="18" y="7" type="curve" smooth="yes"/>
      <point x="28" y="13"/>
      <point x="30" y="15"/>
      <point x="30" y="20" type="curve" smooth="yes"/>
      <point x="30" y="25"/>
      <point x="22" y="28"/>
      <point x="15" y="23" type="curve"/>
      <point x="15" y="22" type="line"/>
      <point x="15" y="29"/>
      <point x="29" y="34"/>
      <point x="29" y="43" type="curve" smooth="yes"/>
      <point x="29" y="48"/>
      <point x="23" y="50"/>
      <point x="15" y="44" type="curve"/>
      <point x="16" y="44" type="line"/>
      <point x="16" y="44"/>
      <point x="19" y="51"/>
      <point x="19" y="57" type="curve" smooth="yes"/>
      <point x="19" y="62"/>
      <point x="19" y="69"/>
      <point x="10" y="69" type="curve" smooth="yes"/>
      <point x="2" y="69"/>
      <point x="-7" y="61"/>
      <point x="-4" y="48" type="curve"/>
      <point x="-4" y="48" type="line"/>
      <point x="-4" y="48"/>
      <point x="-10" y="54"/>
      <point x="-14" y="54" type="curve" smooth="yes"/>
      <point x="-18" y="54"/>
      <point x="-25" y="48"/>
      <point x="-13" y="28" type="curve"/>
      <point x="-13" y="28" type="line"/>
      <point x="-13" y="28"/>
      <point x="-22" y="31"/>
      <point x="-28" y="31" type="curve" smooth="yes"/>
      <point x="-34" y="31"/>
      <point x="-33" y="18"/>
      <point x="-17" y="3" type="curve"/>
      <point x="-17" y="2" type="line"/>
      <point x="-17" y="2"/>
      <point x="-30" y="10"/>
      <point x="-30" y="1" type="curve" smooth="yes"/>
      <point x="-30" y="-8"/>
      <point x="-13" y="-21"/>
      <point x="-13" y="-21" type="curve"/>
      <point x="-13" y="-21"/>
      <point x="-22" y="-19"/>
      <point x="-22" y="-25" type="curve" smooth="yes"/>
      <point x="-22" y="-32"/>
      <point x="-6" y="-39"/>
      <point x="-6" y="-42" type="curve" smooth="yes"/>
      <point x="-6" y="-46"/>
      <point x="-14" y="-42"/>
      <point x="-14" y="-46" type="curve" smooth="yes"/>
      <point x="-14" y="-50"/>
      <point x="-3" y="-59"/>
      <point x="-3" y="-59" type="curve"/>
      <point x="-3" y="-72" type="line"/>
    </contour>
  </outline>
</glyph>
<glyph name="p.1" format="1">
  <advance width="500"/>
  <outline>
    <contour>
      <point x="8" y="0" type="line"/>
      <point x="8" y="100" type="line"/>
      <point x="0" y="100" type="line"/>
      <point x="0" y="0" type="line"/>
    </contour>
    <contour>
      <point x="19" y="0" type="line"/>
      <point x="19" y="100" type="line"/>
      <point x="11" y="100" type="line"/>
      <point x="11" y="0" type="line"/>
    </contour>
    <contour>
      <point x="31" y="0" type="line"/>
      <point x="31" y="100" type="line"/>
      <point x="23" y="100" type="line"/>
      <point x="23" y="0" type="line"/>
    </contour>
    <contour>
      <point x="43" y="0" type="line"/>
      <point x="43" y="100" type="line"/>
      <point x="35" y="100" type="line"/>
      <point x="35" y="0" type="line"/>
    </contour>
    <contour>
      <point x="54" y="0" type="line"/>
      <point x="54" y="100" type="line"/>
      <point x="46" y="100" type="line"/>
      <point x="46" y="0" type="line"/>
    </contour>
    <contour>
      <point x="66" y="0" type="line"/>
      <point x="66" y="100" type="line"/>
      <point x="58" y="100" type="line"/>
      <point x="58" y="0" type="line"/>
    </contour>
    <contour>
      <point x="77" y="0" type="line"/>
      <point x="77" y="100" type="line"/>
      <point x="69" y="100" type="line"/>
      <point x="69" y="0" type="line"/>
    </contour>
    <contour>
      <point x="89" y="0" type="line"/>
      <point x="89" y="100" type="line"/>
      <point x="81" y="100" type="line"/>
      <point x="81" y="0" type="line"/>
    </contour>
    <contour>
      <point x="100" y="0" type="line"/>
      <point x="100" y="100" type="line"/>
      <point x="92" y="100" type="line"/>
      <point x="92" y="0" type="line"/>
    </contour>
  </outline>
</glyph>
<glyph name="p.10" format="2">
  <advance width="500"/>
  <outline>
    <contour>
      <point x="14" y="14" type="line"/>
      <point x="86" y="14" type="line"/>
      <point x="86" y="86" type="line"/>
      <point x="14" y="86" type="line"/>
    </contour>
  </outline>
</glyph>
<glyph name="p.2.copy_1" format="1">
  <advance width="500"/>
  <outline>
    <contour>
      <point x="50" y="0" type="curve" smooth="yes"/>
      <point x="78" y="0"/>
      <point x="100" y="23"/>
      <point x="100" y="50" type="curve" smooth="yes"/>
      <point x="100" y="77"/>
      <point x="78" y="100"/>
      <point x="50" y="100" type="curve" smooth="yes"/>
      <point x="23" y="100"/>
      <point x="0" y="77"/>
      <point x="0" y="50" type="curve" smooth="yes"/>
      <point x="0" y="23"/>
      <point x="23" y="0"/>
    </contour>
  </outline>
</glyph>
<glyph name="p.2.copy_2" format="1">
  <advance width="500"/>
  <outline>
    <contour>
      <point x="25" y="50" type="curve" smooth="yes"/>
      <point x="39" y="50"/>
      <point x="50" y="61"/>
      <point x="50" y="75" type="curve" smooth="yes"/>
      <point x="50" y="88"/>
      <point x="39" y="100"/>
      <point x="25" y="100" type="curve" smooth="yes"/>
      <point x="12" y="100"/>
      <point x="0" y="88"/>
      <point x="0" y="75" type="curve" smooth="yes"/>
      <point x="0" y="61"/>
      <point x="12" y="50"/>
    </contour>
    <contour>
      <point x="75" y="0" type="curve" smooth="yes"/>
      <point x="89" y="0"/>
      <point x="100" y="11"/>
      <point x="100" y="25" type="curve" smooth="yes"/>
      <point x="100" y="38"/>
      <point x="89" y="50"/>
      <point x="75" y="50" type="curve" smooth="yes"/>
      <point x="62" y="50"/>
      <point x="50" y="38"/>
      <point x="50" y="25" type="curve" smooth="yes"/>
      <point x="50" y="11"/>
      <point x="62" y="0"/>
    </contour>
  </outline>
</glyph>
<glyph name="p.3.copy_1" format="1">
  <advance width="500"/>
  <outline>
    <contour>
      <point x="100" y="100" type="line"/>
      <point x="0" y="0" type="line"/>
      <point x="0" y="100" type="line"/>
    </contour>
  </outline>
</glyph>
<glyph name="p.4" format="2">
  <advance width="500"/>
  <outline>
    <contour>
      <point x="82" y="0" type="line"/>
      <point x="100" y="19" type="line"/>
      <point x="70" y="50" type="line"/>
      <point x="100" y="80" type="line"/>
      <point x="82" y="100" type="line"/>
      <point x="51" y="69" type="line"/>
      <point x="20" y="100" type="line"/>
      <point x="0" y="81" type="line"/>
      <point x="32" y="50" type="line"/>
      <point x="0" y="19" type="line"/>
      <point x="20" y="0" type="line"/>
      <point x="51" y="31" type="line"/>
    </contour>
  </outline>
</glyph>
<glyph name="p.6" format="1">
  <advance width="500"/>
  <outline>
    <contour>
      <point x="0" y="92" type="line"/>
      <point x="100" y="92" type="line"/>
      <point x="100" y="100" type="line"/>
      <point x="0" y="100" type="line"/>
    </contour>
    <contour>
      <point x="0" y="81" type="line"/>
      <point x="100" y="81" type="line"/>
      <point x="100" y="89" type="line"/>
      <point x="0" y="89" type="line"/>
    </contour>
    <contour>
      <point x="0" y="69" type="line"/>
      <point x="100" y="69" type="line"/>
      <point x="100" y="77" type="line"/>
      <point x="0" y="77" type="line"/>
    </contour>
    <contour>
      <point x="0" y="57" type="line"/>
      <point x="100" y="57" type="line"/>
      <point x="100" y="65" type="line"/>
      <point x="0" y="65" type="line"/>
    </contour>
    <contour>
      <point x="0" y="46" type="line"/>
      <point x="100" y="46" type="line"/>
      <point x="100" y="54" type="line"/>
      <point x="0" y="54" type="line"/>
    </contour>
    <contour>
      <point x="0" y="34" type="line"/>
      <point x="100" y="34" type="line"/>
      <point x="100" y="42" type="line"/>
      <point x="0" y="42" type="line"/>
    </contour>
    <contour>
      <point x="0" y="23" type="line"/>
      <point x="100" y="23" type="line"/>
      <point x="100" y="31" type="line"/>
      <point x="0" y="31" type="line"/>
    </contour>
    <contour>
      <point x="0" y="11" type="line"/>
      <point x="100" y="11" type="line"/>
      <point x="100" y="19" type="line"/>
      <point x="0" y="19" type="line"/>
    </contour>
    <contour>
      <point x="0" y="0" type="line"/>
      <point x="100" y="0" type="line"/>
      <point x="100" y="8" type="line"/>
      <point x="0" y="8" type="line"/>
    </contour>
  </outline>
</glyph>
<glyph name="p.7" format="2">
  <advance width="500"/>
  <outline>
    <contour>
      <point x="0" y="20" type="line" smooth="yes"/>
      <point x="7.34788079488e-16" y="8.0"/>
      <point x="8.0" y="0.0"/>
      <point x="20" y="0" type="curve" smooth="yes"/>
      <point x="80" y="0" type="line" smooth="yes"/>
      <point x="92.0" y="0.0"/>
      <point x="100.0" y="8.0"/>
      <point x="100" y="20" type="curve" smooth="yes"/>
      <point x="100" y="80" type="line" smooth="yes"/>
      <point x="100.0" y="92.0"/>
      <point x="92.0" y="100.0"/>
      <point x="80" y="100" type="curve" smooth="yes"/>
      <point x="20" y="100" type="line" smooth="yes"/>
      <point x="8.0" y="100.0"/>
      <point x="-7.34788079488e-16" y="92.0"/>
      <point x="0" y="80" type="curve" smooth="yes"/>
    </contour>
  </outline>
</glyph>
<glyph name="p.8.copy_1.copy_3" format="2">
  <advance width="500"/>
  <outline>
    <contour>
      <point x="0" y="100" type="line"/>
      <point x="0" y="0" type="line"/>
      <point x="100" y="0" type="line"/>
      <point x="100" y="100" type="line"/>
    </contour>
    <contour>
      <point x="10" y="10" type="line"/>
      <point x="10" y="90" type="line"/>
      <point x="90" y="90" type="line"/>
      <point x="90" y="10" type="line"/>
    </contour>
  </outline>
</glyph>
<glyph name="p.8.copy_1" format="1">
  <advance width="500"/>
  <outline>
    <contour>
      <point x="0" y="0" type="line"/>
      <point x="40" y="0" type="line"/>
      <point x="40" y="40" type="line"/>
      <point x="0" y="40" type="line"/>
    </contour>
    <contour>
      <point x="60" y="0" type="line"/>
      <point x="100" y="0" type="line"/>
      <point x="100" y="40" type="line"/>
      <point x="60" y="40" type="line"/>
    </contour>
    <contour>
      <point x="0" y="60" type="line"/>
      <point x="40" y="60" type="line"/>
      <point x="40" y="100" type="line"/>
      <point x="0" y="100" type="line"/>
    </contour>
    <contour>
      <point x="60" y="60" type="line"/>
      <point x="100" y="60" type="line"/>
      <point x="100" y="100" type="line"/>
      <point x="60" y="100" type="line"/>
    </contour>
  </outline>
</glyph>
<glyph name="p.8.copy_2.copy_1" format="1">
  <advance width="500"/>
  <outline>
    <contour>
      <point x="33" y="0" type="line"/>
      <point x="66" y="0" type="line"/>
      <point x="66" y="33" type="line"/>
      <point x="33" y="33" type="line"/>
    </contour>
    <contour>
      <point x="0" y="33" type="line"/>
      <point x="33" y="33" type="line"/>
      <point x="33" y="66" type="line"/>
      <point x="0" y="66" type="line"/>
    </contour>
    <contour>
      <point x="66" y="33" type="line"/>
      <point x="100" y="33" type="line"/>
      <point x="100" y="66" type="line"/>
      <point x="66" y="66" type="line"/>
    </contour>
    <contour>
      <point x="33" y="66" type="line"/>
      <point x="66" y="66" type="line"/>
      <point x="66" y="100" type="line"/>
      <point x="33" y="100" type="line"/>
    </contour>
  </outline>
</glyph>
<glyph name="p.9" format="2">
  <advance width="500"/>
  <outline>
    <contour>
      <point x="0" y="0" type="line"/>
      <point x="0" y="100" type="line"/>
      <point x="101" y="0" type="line"/>
    </contour>
  </outline>
</glyph>
<glyph name="snow" format="2">
  <outline>
    <contour>
      <point x="6" y="2" type="line"/>
      <point x="31" y="27" type="line"/>
      <point x="27" y="31" type="line"/>
      <point x="2" y="6" type="line"/>
      <point x="2" y="40" type="line"/>
      <point x="-2" y="40" type="line"/>
      <point x="-2" y="6" type="line"/>
      <point x="-27" y="31" type="line"/>
      <point x="-31" y="27" type="line"/>
      <point x="-6" y="2" type="line"/>
      <point x="-40" y="2" type="line"/>
      <point x="-40" y="-2" type="line"/>
      <point x="-6" y="-2" type="line"/>
      <point x="-31" y="-27" type="line"/>
      <point x="-27" y="-31" type="line"/>
      <point x="-2" y="-6" type="line"/>
      <point x="-2" y="-40" type="line"/>
      <point x="2" y="-40" type="line"/>
      <point x="2" y="-6" type="line"/>
      <point x="27" y="-31" type="line"/>
      <point x="31" y="-27" type="line"/>
      <point x="6" y="-2" type="line"/>
      <point x="40" y="-2" type="line"/>
      <point x="40" y="2" type="line"/>
    </contour>
  </outline>
</glyph>
<glyph name="square" format="2">
  <outline>
    <contour>
      <point x="-34" y="-34" type="line"/>
      <point x="34" y="-34" type="line"/>
      <point x="34" y="34" type="line"/>
      <point x="-34" y="34" type="line"/>
    </contour>
  </outline>
</glyph>
<glyph name="star10" format="2">
  <outline>
    <contour>
      <point x="17" y="-29" type="line"/>
      <point x="10" y="-7" type="line"/>
      <point x="29" y="-7" type="line"/>
      <point x="20" y="0" type="line"/>
      <point x="29" y="7" type="line"/>
      <point x="10" y="7" type="line"/>
      <point x="17" y="29" type="line"/>
      <point x="3" y="18" type="line"/>
      <point x="-1" y="29" type="line"/>
      <point x="-5" y="18" type="line"/>
      <point x="-20" y="29" type="line"/>
      <point x="-13" y="7" type="line"/>
      <point x="-32" y="7" type="line"/>
      <point x="-23" y="0" type="line"/>
      <point x="-32" y="-7" type="line"/>
      <point x="-13" y="-7" type="line"/>
      <point x="-20" y="-29" type="line"/>
      <point x="-5" y="-18" type="line"/>
      <point x="-1" y="-29" type="line"/>
      <point x="3" y="-18" type="line"/>
    </contour>
  </outline>
</glyph>
<glyph name="star8" format="2">
  <outline>
    <contour>
      <point x="-29" y="29" type="line"/>
      <point x="-29" y="12" type="line"/>
      <point x="-40" y="0" type="line"/>
      <point x="-29" y="-12" type="line"/>
      <point x="-29" y="-29" type="line"/>
      <point x="-12" y="-29" type="line"/>
      <point x="0" y="-40" type="line"/>
      <point x="12" y="-29" type="line"/>
      <point x="29" y="-29" type="line"/>
      <point x="29" y="-12" type="line"/>
      <point x="40" y="0" type="line"/>
      <point x="29" y="12" type="line"/>
      <point x="29" y="29" type="line"/>
      <point x="12" y="29" type="line"/>
      <point x="0" y="40" type="line"/>
      <point x="-12" y="29" type="line"/>
    </contour>
  </outline>
</glyph>
